testWalking_kinetics.mot
nRows=20
nColumns=19

name testWalking_kinetics.mot
datacolumns 19
datarows 20
range 0.0000000000 0.0175925922
endheader
time	ground_force_vx	ground_force_vy	ground_force_vz	ground_force_px	ground_force_py	ground_force_pz	ground_force_vx	ground_force_vy	ground_force_vz	ground_force_px	ground_force_py	ground_force_pz	ground_torque_x	ground_torque_y	ground_torque_z	ground_torque_x	ground_torque_y	ground_torque_z
        0.0000000000	        0.0000000000	       -0.0000000000	       -0.0000000000	        0.0762562081	        0.0000000000	       -0.1868414730	     -136.2752685547	      801.3739624023	       26.3996467590	        0.2931195796	        0.0000000000	       -0.0466390438	        0.0000000000	       -0.0000000000	       -0.0000000000	        0.0000000000	       -0.2010667175	       -0.0000000000	
        0.0009259259	        0.0000000000	       -0.0000000000	       -0.0000000000	        0.0762562081	        0.0000000000	       -0.1868414730	     -135.6727752686	      801.3739624023	       24.9527873993	        0.2933985293	        0.0000000000	       -0.0465824828	        0.0000000000	       -0.0000000000	       -0.0000000000	        0.0000000000	       -0.2377176434	       -0.0000000000	
        0.0018518518	        0.0000000000	       -0.0000000000	       -0.0000000000	        0.0762562081	        0.0000000000	       -0.1868414730	     -135.6058349609	      800.5769653320	       26.7335376740	        0.2938885689	        0.0000000000	       -0.0467487685	        0.0000000000	       -0.0000000000	       -0.0000000000	        0.0000000000	       -0.6050398946	       -0.0000000000	
        0.0027777778	        0.0000000000	       -0.0000000000	       -0.0000000000	        0.0762562081	        0.0000000000	       -0.1868414730	     -135.1372222900	      801.0197143555	       27.8910274506	        0.2941813469	        0.0000000000	       -0.0466540195	        0.0000000000	       -0.0000000000	       -0.0000000000	        0.0000000000	       -0.4494933784	       -0.0000000000	
        0.0037037036	        0.0000000000	       -0.0000000000	       -0.0000000000	        0.0762562081	        0.0000000000	       -0.1868414730	     -133.8876037598	      800.5769653320	       26.0880165100	        0.2945512831	        0.0000000000	       -0.0468483381	        0.0000000000	       -0.0000000000	       -0.0000000000	        0.0000000000	       -0.2593652904	       -0.0000000000	
        0.0046296297	        0.0000000000	       -0.0000000000	       -0.0000000000	        0.0762562081	        0.0000000000	       -0.1868414730	     -132.9280700684	      801.1082763672	       24.9527873993	        0.2950075567	        0.0000000000	       -0.0467044003	        0.0000000000	       -0.0000000000	       -0.0000000000	        0.0000000000	       -0.3805954158	       -0.0000000000	
        0.0055555557	        0.0000000000	       -0.0000000000	       -0.0000000000	        0.0762562081	        0.0000000000	       -0.1868414730	     -133.1065979004	      802.5252685547	       26.9561328888	        0.2954927087	        0.0000000000	       -0.0464579239	        0.0000000000	       -0.0000000000	       -0.0000000000	        0.0000000000	       -0.4618069232	       -0.0000000000	
        0.0064814813	        0.0000000000	       -0.0000000000	       -0.0000000000	        0.0762562081	        0.0000000000	       -0.1868414730	     -132.3032684326	      800.9311523438	       27.8242492676	        0.2957349718	        0.0000000000	       -0.0468961485	        0.0000000000	       -0.0000000000	       -0.0000000000	        0.0000000000	       -0.4295434356	       -0.0000000000	
        0.0074074073	        0.0000000000	       -0.0000000000	       -0.0000000000	        0.0762562081	        0.0000000000	       -0.1868414730	     -131.2767944336	      800.8426513672	       26.2215728760	        0.2959964573	        0.0000000000	       -0.0469143763	        0.0000000000	       -0.0000000000	       -0.0000000000	        0.0000000000	       -0.3598779142	       -0.0000000000	
        0.0083333338	        0.0000000000	       -0.0000000000	       -0.0000000000	        0.0762562081	        0.0000000000	       -0.1868414730	     -130.5404205322	      800.5769653320	       25.2644176483	        0.2963276207	        0.0000000000	       -0.0471395329	        0.0000000000	       -0.0000000000	       -0.0000000000	        0.0000000000	       -0.5430631638	       -0.0000000000	
        0.0092592593	        0.0000000000	       -0.0000000000	       -0.0000000000	        0.0762562081	        0.0000000000	       -0.1868414730	     -130.6296691895	      800.4884033203	       27.1342086792	        0.2966724336	        0.0000000000	       -0.0472089984	        0.0000000000	       -0.0000000000	       -0.0000000000	        0.0000000000	       -0.5209358931	       -0.0000000000	
        0.0101851849	        0.0000000000	       -0.0000000000	       -0.0000000000	        0.0762562081	        0.0000000000	       -0.1868414730	     -130.2503204346	      800.3112792969	       28.2249183655	        0.2970019579	        0.0000000000	       -0.0473947190	        0.0000000000	       -0.0000000000	       -0.0000000000	        0.0000000000	       -0.4572540820	       -0.0000000000	
        0.0111111114	        0.0000000000	       -0.0000000000	       -0.0000000000	        0.0762562081	        0.0000000000	       -0.1868414730	     -129.1569061279	      800.3112792969	       26.6222419739	        0.2973503172	        0.0000000000	       -0.0473798923	        0.0000000000	       -0.0000000000	       -0.0000000000	        0.0000000000	       -0.5231488347	       -0.0000000000	
        0.0120370369	        0.0000000000	       -0.0000000000	       -0.0000000000	        0.0762562081	        0.0000000000	       -0.1868414730	     -128.5544128418	      800.1341552734	       25.8654212952	        0.2976565957	        0.0000000000	       -0.0476770885	        0.0000000000	       -0.0000000000	       -0.0000000000	        0.0000000000	       -0.6108324528	       -0.0000000000	
        0.0129629625	        0.0000000000	       -0.0000000000	       -0.0000000000	        0.0762562081	        0.0000000000	       -0.1868414730	     -128.6883087158	      800.4884033203	       27.8910274506	        0.2981085181	        0.0000000000	       -0.0475504510	        0.0000000000	       -0.0000000000	       -0.0000000000	        0.0000000000	       -0.4644437730	       -0.0000000000	
        0.0138888890	        0.0000000000	       -0.0000000000	       -0.0000000000	        0.0762562081	        0.0000000000	       -0.1868414730	     -127.9965515137	      801.0197143555	       28.7591438293	        0.2984814346	        0.0000000000	       -0.0477676727	        0.0000000000	       -0.0000000000	       -0.0000000000	        0.0000000000	       -0.5610877872	       -0.0000000000	
        0.0148148146	        0.0000000000	       -0.0000000000	       -0.0000000000	        0.0762562081	        0.0000000000	       -0.1868414730	     -126.6799850464	      800.3998413086	       27.4013214111	        0.2986223102	        0.0000000000	       -0.0479618944	        0.0000000000	       -0.0000000000	       -0.0000000000	        0.0000000000	       -0.7058166265	       -0.0000000000	
        0.0157407410	        0.0000000000	       -0.0000000000	       -0.0000000000	        0.0762562081	        0.0000000000	       -0.1868414730	     -125.7204589844	      800.2227172852	       26.8003158569	        0.2989800870	        0.0000000000	       -0.0481830314	        0.0000000000	       -0.0000000000	       -0.0000000000	        0.0000000000	       -0.5622251034	       -0.0000000000	
        0.0166666675	        0.0000000000	       -0.0000000000	       -0.0000000000	        0.0762562081	        0.0000000000	       -0.1868414730	     -125.8543472290	      801.4625244141	       28.8927001953	        0.2995677590	        0.0000000000	       -0.0479728580	        0.0000000000	       -0.0000000000	       -0.0000000000	        0.0000000000	       -0.4542233944	       -0.0000000000	
        0.0175925922	        0.0000000000	       -0.0000000000	       -0.0000000000	        0.0762562081	        0.0000000000	       -0.1868414730	     -124.8948211670	      801.8167724609	       29.8275947571	        0.3000021875	        0.0000000000	       -0.0480584055	        0.0000000000	       -0.0000000000	       -0.0000000000	        0.0000000000	       -0.5961375237	       -0.0000000000	
